# xmcd
#
# Track frame offsets: 
#        150
#        31297
#        64967
#        95772
#        139006
#        161734
#        192101
#        214921
#        242435
#        260383
#        277749
#        302725
#        326794
#
# Disc length: 4721 seconds
#
# Revision: 0
# Processed by: cddbd v1.5.2PL0 Copyright (c) Steve Scherf et al.
# Submitted via: ExactAudioCopy v1.0b3
#
DISCID=ba126f0d
DTITLE=Various Artist - Global Trance Vol. 1 CD 1
DYEAR=1900
DGENRE=
TTITLE0=Pulsedriver - Vagabonds (Xtd Mix)
TTITLE1=Rosendahl - To You (Original Mix)
TTITLE2=Ron Van Den Beuken - Sunset (Original Mix)
TTITLE3=Tiesto - Adagio For Strings (Album Version)
TTITLE4=Marcos - Summer Solstice (DJ Vini's Season Mix)
TTITLE5=Fred Baker Vs. Nyram - Confirmation
TTITLE6=DJ Moe Vs. Yoba - Endless Love 2005 (Cosmic Culture Mix)
TTITLE7=Clokx - Feelings (Xtd Mix)
TTITLE8=System F - Ignition, Sequence, Start
TTITLE9=Martin Roth - The Last Time
TTITLE10=Sfinx - Infinity
TTITLE11=Hypertrophy - Just Come Back To Me 2005 (Warp Brothers Rmx)
TTITLE12=Dave 202 Pres. Powerface - Abyss
EXTD=
EXTT0=
EXTT1=
EXTT2=
EXTT3=
EXTT4=
EXTT5=
EXTT6=
EXTT7=
EXTT8=
EXTT9=
EXTT10=
EXTT11=
EXTT12=
PLAYORDER=
